# xmcd
#
# Track frame offsets:
#	150
#	9625
#	24345
#	35820
#	45297
#	56112
#	68437
#	80805
#	93460
#	105950
#	119852
#	130425
#	143202
#
# Disc length: 2105 seconds
#
# Revision: 0
# Processed by: cddbd v1.4PL0 Copyright (c) Steve Scherf et al.
# Submitted via: EasyCDDAExtractor 4.6.0.1
#
DISCID=b208370d
DTITLE=Anne Murray - There's A Hippo In My Tub
DYEAR=2001
DGENRE=Country
TTITLE0=Hey Daddy
TTITLE1=Stars Are The Windows Of Heaven
TTITLE2=Animal Crackers
TTITLE3=Hi-Lili Hi-Lo
TTITLE4=Why Oh Why (Why, Why, Why)
TTITLE5=Teddy Bears' Picnic
TTITLE6=Sing High, Sing Low
TTITLE7=Inch Worm
TTITLE8=You Are My Sunshine/Open Up Your Heart
TTITLE9=I Can See Clearly Now
TTITLE10=What A Wonderful World
TTITLE11=Sleepytime
TTITLE12=Lullaby Medley
EXTD=
EXTT0=
EXTT1=
EXTT2=
EXTT3=
EXTT4=
EXTT5=
EXTT6=
EXTT7=
EXTT8=
EXTT9=
EXTT10=
EXTT11=
EXTT12=
PLAYORDER=
